<?xml version="1.0" encoding="UTF-8" standalone="no"?>
<!-- Created with Inkscape (http://www.inkscape.org/) -->

<svg
   xmlns:dc="http://purl.org/dc/elements/1.1/"
   xmlns:cc="http://creativecommons.org/ns#"
   xmlns:rdf="http://www.w3.org/1999/02/22-rdf-syntax-ns#"
   xmlns:svg="http://www.w3.org/2000/svg"
   xmlns="http://www.w3.org/2000/svg"
   xmlns:sodipodi="http://sodipodi.sourceforge.net/DTD/sodipodi-0.dtd"
   xmlns:inkscape="http://www.inkscape.org/namespaces/inkscape"
   width="210mm"
   height="297mm"
   viewBox="0 0 210 297"
   version="1.1"
   id="svg3980"
   inkscape:version="0.92.5 (2060ec1f9f, 2020-04-08)"
   sodipodi:docname="Logo.svg">
  <defs
     id="defs3974">
    <filter
       inkscape:collect="always"
       style="color-interpolation-filters:sRGB"
       id="filter2150"
       x="-0.0070832605"
       width="1.0141665"
       y="-0.0037894438"
       height="1.0075788">
      <feGaussianBlur
         inkscape:collect="always"
         stdDeviation="0.22890942"
         id="feGaussianBlur2152" />
    </filter>
  </defs>
  <sodipodi:namedview
     id="base"
     pagecolor="#ffffff"
     bordercolor="#666666"
     borderopacity="1.0"
     inkscape:pageopacity="0.0"
     inkscape:pageshadow="2"
     inkscape:zoom="0.49497475"
     inkscape:cx="177.89647"
     inkscape:cy="623.9047"
     inkscape:document-units="mm"
     inkscape:current-layer="g35233"
     showgrid="false"
     inkscape:window-width="1440"
     inkscape:window-height="836"
     inkscape:window-x="0"
     inkscape:window-y="27"
     inkscape:window-maximized="1" />
  <metadata
     id="metadata3977">
    <rdf:RDF>
      <cc:Work
         rdf:about="">
        <dc:format>image/svg+xml</dc:format>
        <dc:type
           rdf:resource="http://purl.org/dc/dcmitype/StillImage" />
        <dc:title></dc:title>
      </cc:Work>
    </rdf:RDF>
  </metadata>
  <g
     inkscape:label="Ebene 1"
     inkscape:groupmode="layer"
     id="layer1">
    <g
       id="g35233"
       transform="matrix(1.9400238,0,0,1.8039064,178.64864,178.69512)"
       style="display:inline;fill:url(#meshgradient2557);fill-opacity:1;filter:url(#filter2150)"
       inkscape:label="Logo">
      <path
         inkscape:connector-curvature="0"
         style="fill:#22ccec;fill-opacity:1;stroke-width:1.31105995"
         d="m -65.505201,55.262761 -0.876466,-0.881361 0.69532,-1.131341 0.695322,-1.131342 h 12.343244 12.343244 l -0.02002,-34.511355 -0.02002,-34.511355 -0.960538,-1.430777 -0.960538,-1.430777 -12.093551,0.605554 -12.093551,0.605554 0.0054,3.454659 0.0054,3.454661 3.27982,23.007569 3.279821,23.00757 0.740959,3.615476 0.740961,3.615475 h 7.182743 7.182744 l -0.436582,2.300757 -0.436582,2.300757 -9.205708,0.381018 -9.205708,0.381019 -5.522904,-37.8504909 -5.52285,-37.8504881 0.03405,-1.118422 0.03405,-1.118423 16.141166,0.936193 16.141166,0.936191 0.855176,-8.227616 0.855176,-8.227616 v -21.638415 -21.638414 l 20.591723,0.93409 20.59172197,0.934089 1.15823403,1.092134 1.1582341,1.092132 -4.4309216,31.966194 -4.4309216,31.966193 -14.6842329,0.371549 -14.684233,0.37155 -0.346833,37.755281 -0.346832,37.75528 -14.450068,0.369304 -14.450068,0.369318 z m 55.271116,-86.085467 v -1.428891 l 1.9529621,-16.648485 1.9529634,-16.648487 0.6094823,-3.516472 0.6094836,-3.516471 -8.7726474,-0.793858 -8.772648,-0.793857 -4.777294,-0.615221 -4.777292,-0.615221 -0.810276,14.128578 -0.810275,14.128578 -0.720617,8.159913 -0.720618,8.159912 10.230419,0.449856 10.230419,0.449857 2.287969,0.26458 2.287969,0.264579 z m -19.611164,75.053113 v -2.629436 h 7.657566 7.657565 l 0.900432,-13.475862 0.900432,-13.475863 0.760977,-4.9301934 0.760976,-4.9301935 h -9.972679 -9.97268 v -3.1772363 -3.177235 l 1.634264,-0.5663596 1.634263,-0.5663596 11.766699,0.6273205 11.7666982,0.6273191 0.3017125,0.242438 0.3017126,0.24243931 -1.9747619,10.43346619 -1.9747618,10.4334673 -1.4432523,11.832465 -1.4432533,11.832464 -1.292869,1.643398 -1.292868,1.643398 h -8.338087 -8.338085 z"
         id="path35241" />
      <path
         inkscape:connector-curvature="0"
         style="display:inline;fill:#fd1093;fill-opacity:1;stroke-width:1.31105995"
         d="m -65.505201,55.262761 -0.876466,-0.881361 0.69532,-1.131341 0.695322,-1.131342 h 12.343244 12.343244 l -0.02002,-34.511355 -0.02002,-34.511355 -0.960538,-1.430777 -0.960538,-1.430777 -12.093551,0.605554 -12.093551,0.605554 0.0054,3.454659 0.0054,3.454661 3.27982,23.007569 3.279821,23.00757 0.740959,3.615476 0.740961,3.615475 h 7.182743 7.182744 l -0.436582,2.300757 -0.436582,2.300757 -9.205708,0.381018 -9.205708,0.381019 -5.522904,-37.8504909 -5.52285,-37.8504881 0.03405,-1.118422 0.03405,-1.118423 16.141166,0.936193 16.141166,0.936191 0.855176,-8.227616 0.855176,-8.227616 v -21.638415 -21.638414 l 20.591723,0.93409 20.59172197,0.934089 1.15823403,1.092134 1.1582341,1.092132 -4.4309216,31.966194 -4.4309216,31.966193 -14.6842329,0.371549 -14.684233,0.37155 -0.346833,37.755281 -0.346832,37.75528 -14.450068,0.369304 -14.450068,0.369318 z m 55.271116,-86.085467 v -1.428891 l 1.9529621,-16.648485 1.9529634,-16.648487 0.6094823,-3.516472 0.6094836,-3.516471 -8.7726474,-0.793858 -8.772648,-0.793857 -4.777294,-0.615221 -4.777292,-0.615221 -0.810276,14.128578 -0.810275,14.128578 -0.720617,8.159913 -0.720618,8.159912 10.230419,0.449856 10.230419,0.449857 2.287969,0.26458 2.287969,0.264579 z m 1.3074109,51.388184 v -1.752957 l 0.8716078,0.876478 0.8716064,0.876479 -0.8716064,0.87648 -0.8716078,0.876478 z m 1.3274314,-7.34051 0.020016,-5.1493132 1.3413252,-1.9720775 1.3413265,-1.9720774 -0.8751613,6.5735911 -0.87516,6.573592 -0.4861855,0.547799 -0.4861817,0.547799 0.020016,-5.149313 z"
         id="path35239" />
      <path
         inkscape:connector-curvature="0"
         style="display:inline;fill:#f57430;fill-opacity:1;stroke-width:1.31105995"
         d="m -65.505201,55.262761 -0.876466,-0.881361 0.69532,-1.131341 0.695322,-1.131342 h 12.527952 12.527953 l -0.428773,-45.6864601 -0.428775,-45.6864599 0.244067,-24.789388 0.244064,-24.789388 20.591723,0.93409 20.59172197,0.934089 1.15823403,1.092134 1.1582341,1.092132 -4.4331351,31.966194 -4.433135,31.966193 h -14.375147 -14.375146 l -0.653706,38.12683 -0.653705,38.12683 -14.450068,0.369304 -14.450068,0.369318 z m 55.271116,-86.085467 v -1.428891 l 1.9529621,-16.648485 1.9529634,-16.648487 0.6094823,-3.516472 0.6094836,-3.516471 -8.7726474,-0.793858 -8.772648,-0.793857 -4.777294,-0.615221 -4.777292,-0.615221 -0.810276,14.128578 -0.810275,14.128578 -0.720617,8.159913 -0.720618,8.159912 10.230419,0.449856 10.230419,0.449857 2.287969,0.26458 2.287969,0.264579 z m -35.196879,74.286199 0.10322,-2.519881 0.686677,1.725568 0.686677,1.725567 -0.789893,0.794314 -0.789897,0.7943 0.10322,-2.519868 z M -8.9266741,20.565478 v -1.752957 l 0.8716078,0.876478 c 1.0761665,1.035743 -0.018814,5.457768 -1.0228612,6.46743 l 0.1512534,-3.837993 z m 1.3274314,-7.34051 0.020016,-5.1493132 1.3413252,-1.9720775 1.3413265,-1.9720774 -0.8751613,6.5735911 -0.87516,6.573592 -0.4861855,0.547799 -0.4861817,0.547799 z M -67.760166,-20.190788 v -1.314719 l 6.863907,0.155551 6.863908,0.155551 3.922232,1.003617 3.922233,1.003616 -10.78614,0.155551 -10.78614,0.155551 z"
         id="path35237"
         sodipodi:nodetypes="cccccccccccccccccccccccccccccccccccccccccccccccccccccccccccccccccccccccccc" />
      <path
         inkscape:connector-curvature="0"
         style="display:inline;fill:#44c263;fill-opacity:1;stroke-width:1.31105995"
         d="m -65.545604,55.222136 -0.836063,-0.840736 0.69532,-1.131341 0.695322,-1.131342 h 12.343244 12.343244 l 0.0048,-51.60269235 0.0048,-51.60269265 0.852294,-18.734735 0.852293,-18.734736 h 6.106616 6.106617 l 14.281735,1.438315 14.2817359,1.438314 0.3311227,0.318937 0.3311228,0.318938 -0.8568366,6.286244 -0.8568366,6.286244 -13.2021012,-0.862439 -13.202101,-0.862438 -3.464447,-0.683009 -3.464448,-0.683009 -0.81571,14.208765 -0.81571,14.208764 -0.726695,8.216989 -0.726696,8.216989 h 7.103037 7.103037 l 8.036251,0.844649 8.0362508,0.84465 v 3.756864 3.756865 H -20.039667 -35.074893 l -0.0048,20.0494542 -0.0048,20.0494538 -0.852293,18.734736 -0.852293,18.734735 h -13.960249 -13.960248 l -0.836063,-0.840736 z M -7.6192631,8.7330139 V 6.9800566 l 0.8716077,0.876478 0.8716064,0.8764793 -0.8716064,0.8764793 -0.8716077,0.8764778 z"
         id="path35235"
         sodipodi:nodetypes="ccccccccccccccccccccccccccccccccccccccccccccccccc" />
    </g>
  </g>
</svg>
